<mxfile host="Electron" modified="2024-05-27T02:09:26.199Z" agent="Mozilla/5.0 (Macintosh; Intel Mac OS X 10_15_7) AppleWebKit/537.36 (KHTML, like Gecko) draw.io/24.4.8 Chrome/124.0.6367.207 Electron/30.0.6 Safari/537.36" etag="CADC_EyPMwWz8GKz6Hf2" version="24.4.8" type="device">
  <diagram name="ページ1" id="8a4-IWshXoXFqNp9TmJs">
    <mxGraphModel dx="1140" dy="826" grid="1" gridSize="10" guides="1" tooltips="1" connect="1" arrows="1" fold="1" page="1" pageScale="1" pageWidth="1654" pageHeight="1169" math="0" shadow="0">
      <root>
        <mxCell id="0" />
        <mxCell id="1" parent="0" />
        <mxCell id="USsaQdyHqkql7huK7rgK-1" value="main" style="text;html=1;align=left;verticalAlign=middle;whiteSpace=wrap;rounded=0;fontFamily=Helvetica;fontSize=14;" parent="1" vertex="1">
          <mxGeometry x="40" y="125" width="80" height="30" as="geometry" />
        </mxCell>
        <mxCell id="USsaQdyHqkql7huK7rgK-2" value="feature/fibo" style="text;html=1;align=left;verticalAlign=middle;whiteSpace=wrap;rounded=0;fontFamily=Helvetica;fontSize=14;" parent="1" vertex="1">
          <mxGeometry x="40" y="245" width="80" height="30" as="geometry" />
        </mxCell>
        <mxCell id="USsaQdyHqkql7huK7rgK-3" value="feature/cli" style="text;html=1;align=left;verticalAlign=middle;whiteSpace=wrap;rounded=0;fontFamily=Helvetica;fontSize=14;" parent="1" vertex="1">
          <mxGeometry x="40" y="365" width="80" height="30" as="geometry" />
        </mxCell>
        <mxCell id="USsaQdyHqkql7huK7rgK-4" value="" style="ellipse;whiteSpace=wrap;html=1;" parent="1" vertex="1">
          <mxGeometry x="120" y="110" width="50" height="50" as="geometry" />
        </mxCell>
        <mxCell id="USsaQdyHqkql7huK7rgK-6" style="edgeStyle=orthogonalEdgeStyle;rounded=0;orthogonalLoop=1;jettySize=auto;html=1;exitX=0;exitY=0.5;exitDx=0;exitDy=0;entryX=1;entryY=0.5;entryDx=0;entryDy=0;" parent="1" source="USsaQdyHqkql7huK7rgK-5" target="USsaQdyHqkql7huK7rgK-4" edge="1">
          <mxGeometry relative="1" as="geometry" />
        </mxCell>
        <mxCell id="USsaQdyHqkql7huK7rgK-5" value="" style="ellipse;whiteSpace=wrap;html=1;" parent="1" vertex="1">
          <mxGeometry x="240" y="110" width="50" height="50" as="geometry" />
        </mxCell>
        <mxCell id="USsaQdyHqkql7huK7rgK-8" style="rounded=0;orthogonalLoop=1;jettySize=auto;html=1;entryX=1;entryY=1;entryDx=0;entryDy=0;exitX=0;exitY=0.5;exitDx=0;exitDy=0;" parent="1" source="USsaQdyHqkql7huK7rgK-7" target="USsaQdyHqkql7huK7rgK-5" edge="1">
          <mxGeometry relative="1" as="geometry" />
        </mxCell>
        <mxCell id="USsaQdyHqkql7huK7rgK-7" value="" style="ellipse;whiteSpace=wrap;html=1;" parent="1" vertex="1">
          <mxGeometry x="320" y="230" width="50" height="50" as="geometry" />
        </mxCell>
        <mxCell id="USsaQdyHqkql7huK7rgK-10" style="edgeStyle=orthogonalEdgeStyle;rounded=0;orthogonalLoop=1;jettySize=auto;html=1;entryX=1;entryY=0.5;entryDx=0;entryDy=0;" parent="1" source="USsaQdyHqkql7huK7rgK-9" target="USsaQdyHqkql7huK7rgK-7" edge="1">
          <mxGeometry relative="1" as="geometry" />
        </mxCell>
        <mxCell id="USsaQdyHqkql7huK7rgK-9" value="" style="ellipse;whiteSpace=wrap;html=1;" parent="1" vertex="1">
          <mxGeometry x="440" y="230" width="50" height="50" as="geometry" />
        </mxCell>
        <mxCell id="USsaQdyHqkql7huK7rgK-11" value="最初のコミット" style="text;html=1;align=center;verticalAlign=middle;rounded=0;" parent="1" vertex="1">
          <mxGeometry x="105" y="88" width="80" height="30" as="geometry" />
        </mxCell>
        <mxCell id="USsaQdyHqkql7huK7rgK-12" value="&lt;span style=&quot;font-size: 14px;&quot;&gt;.gitignore&lt;/span&gt;" style="text;html=1;align=center;verticalAlign=middle;rounded=0;fontSize=14;" parent="1" vertex="1">
          <mxGeometry x="225" y="83" width="80" height="30" as="geometry" />
        </mxCell>
        <mxCell id="USsaQdyHqkql7huK7rgK-13" value="fibonacci" style="text;html=1;align=center;verticalAlign=middle;rounded=0;fontSize=14;" parent="1" vertex="1">
          <mxGeometry x="310" y="209" width="80" height="30" as="geometry" />
        </mxCell>
        <mxCell id="USsaQdyHqkql7huK7rgK-14" value="単体テスト" style="text;html=1;align=center;verticalAlign=middle;rounded=0;" parent="1" vertex="1">
          <mxGeometry x="425" y="209" width="80" height="30" as="geometry" />
        </mxCell>
        <mxCell id="USsaQdyHqkql7huK7rgK-16" style="rounded=0;orthogonalLoop=1;jettySize=auto;html=1;exitX=0;exitY=0.5;exitDx=0;exitDy=0;entryX=0.5;entryY=1;entryDx=0;entryDy=0;" parent="1" source="USsaQdyHqkql7huK7rgK-15" target="USsaQdyHqkql7huK7rgK-5" edge="1">
          <mxGeometry relative="1" as="geometry" />
        </mxCell>
        <mxCell id="USsaQdyHqkql7huK7rgK-15" value="" style="ellipse;whiteSpace=wrap;html=1;" parent="1" vertex="1">
          <mxGeometry x="320" y="350" width="50" height="50" as="geometry" />
        </mxCell>
        <mxCell id="USsaQdyHqkql7huK7rgK-17" value="コマンドラインパーサー" style="text;html=1;align=center;verticalAlign=middle;rounded=0;" parent="1" vertex="1">
          <mxGeometry x="310" y="330" width="80" height="30" as="geometry" />
        </mxCell>
        <mxCell id="USsaQdyHqkql7huK7rgK-18" value="main" style="text;html=1;align=left;verticalAlign=middle;whiteSpace=wrap;rounded=0;fontFamily=Helvetica;fontSize=14;" parent="1" vertex="1">
          <mxGeometry x="40" y="526" width="80" height="30" as="geometry" />
        </mxCell>
        <mxCell id="USsaQdyHqkql7huK7rgK-19" value="feature/fibo" style="text;html=1;align=left;verticalAlign=middle;whiteSpace=wrap;rounded=0;fontFamily=Helvetica;fontSize=14;" parent="1" vertex="1">
          <mxGeometry x="40" y="646" width="80" height="30" as="geometry" />
        </mxCell>
        <mxCell id="USsaQdyHqkql7huK7rgK-20" value="feature/cli" style="text;html=1;align=left;verticalAlign=middle;whiteSpace=wrap;rounded=0;fontFamily=Helvetica;fontSize=14;" parent="1" vertex="1">
          <mxGeometry x="40" y="766" width="80" height="30" as="geometry" />
        </mxCell>
        <mxCell id="USsaQdyHqkql7huK7rgK-21" value="" style="ellipse;whiteSpace=wrap;html=1;" parent="1" vertex="1">
          <mxGeometry x="120" y="511" width="50" height="50" as="geometry" />
        </mxCell>
        <mxCell id="USsaQdyHqkql7huK7rgK-22" style="edgeStyle=orthogonalEdgeStyle;rounded=0;orthogonalLoop=1;jettySize=auto;html=1;exitX=0;exitY=0.5;exitDx=0;exitDy=0;entryX=1;entryY=0.5;entryDx=0;entryDy=0;" parent="1" source="USsaQdyHqkql7huK7rgK-23" target="USsaQdyHqkql7huK7rgK-21" edge="1">
          <mxGeometry relative="1" as="geometry" />
        </mxCell>
        <mxCell id="USsaQdyHqkql7huK7rgK-23" value="" style="ellipse;whiteSpace=wrap;html=1;" parent="1" vertex="1">
          <mxGeometry x="240" y="511" width="50" height="50" as="geometry" />
        </mxCell>
        <mxCell id="USsaQdyHqkql7huK7rgK-24" style="rounded=0;orthogonalLoop=1;jettySize=auto;html=1;entryX=1;entryY=0.5;entryDx=0;entryDy=0;exitX=0;exitY=0.5;exitDx=0;exitDy=0;" parent="1" source="USsaQdyHqkql7huK7rgK-25" target="USsaQdyHqkql7huK7rgK-33" edge="1">
          <mxGeometry relative="1" as="geometry" />
        </mxCell>
        <mxCell id="USsaQdyHqkql7huK7rgK-25" value="" style="ellipse;whiteSpace=wrap;html=1;" parent="1" vertex="1">
          <mxGeometry x="441" y="751" width="50" height="50" as="geometry" />
        </mxCell>
        <mxCell id="USsaQdyHqkql7huK7rgK-26" style="edgeStyle=orthogonalEdgeStyle;rounded=0;orthogonalLoop=1;jettySize=auto;html=1;entryX=1;entryY=0.5;entryDx=0;entryDy=0;" parent="1" source="USsaQdyHqkql7huK7rgK-27" target="USsaQdyHqkql7huK7rgK-25" edge="1">
          <mxGeometry relative="1" as="geometry" />
        </mxCell>
        <mxCell id="USsaQdyHqkql7huK7rgK-27" value="" style="ellipse;whiteSpace=wrap;html=1;" parent="1" vertex="1">
          <mxGeometry x="561" y="751" width="50" height="50" as="geometry" />
        </mxCell>
        <mxCell id="USsaQdyHqkql7huK7rgK-28" value="最初のコミット" style="text;html=1;align=center;verticalAlign=middle;rounded=0;" parent="1" vertex="1">
          <mxGeometry x="105" y="489" width="80" height="30" as="geometry" />
        </mxCell>
        <mxCell id="USsaQdyHqkql7huK7rgK-29" value="&lt;span style=&quot;font-size: 14px;&quot;&gt;.gitignore&lt;/span&gt;" style="text;html=1;align=center;verticalAlign=middle;rounded=0;fontSize=14;" parent="1" vertex="1">
          <mxGeometry x="225" y="482" width="80" height="40" as="geometry" />
        </mxCell>
        <mxCell id="USsaQdyHqkql7huK7rgK-30" value="fibonacci&#39;" style="text;html=1;align=center;verticalAlign=middle;rounded=0;fontSize=14;fontStyle=6" parent="1" vertex="1">
          <mxGeometry x="431" y="727" width="80" height="30" as="geometry" />
        </mxCell>
        <mxCell id="USsaQdyHqkql7huK7rgK-31" value="単体テスト&#39;" style="text;html=1;align=center;verticalAlign=middle;rounded=0;fontStyle=6" parent="1" vertex="1">
          <mxGeometry x="546" y="727" width="80" height="30" as="geometry" />
        </mxCell>
        <mxCell id="USsaQdyHqkql7huK7rgK-32" style="rounded=0;orthogonalLoop=1;jettySize=auto;html=1;exitX=0;exitY=0.5;exitDx=0;exitDy=0;entryX=0.5;entryY=1;entryDx=0;entryDy=0;" parent="1" source="USsaQdyHqkql7huK7rgK-33" target="USsaQdyHqkql7huK7rgK-23" edge="1">
          <mxGeometry relative="1" as="geometry" />
        </mxCell>
        <mxCell id="USsaQdyHqkql7huK7rgK-33" value="" style="ellipse;whiteSpace=wrap;html=1;" parent="1" vertex="1">
          <mxGeometry x="320" y="751" width="50" height="50" as="geometry" />
        </mxCell>
        <mxCell id="USsaQdyHqkql7huK7rgK-34" value="コマンドラインパーサー" style="text;html=1;align=center;verticalAlign=middle;rounded=0;" parent="1" vertex="1">
          <mxGeometry x="310" y="728" width="80" height="30" as="geometry" />
        </mxCell>
        <mxCell id="USsaQdyHqkql7huK7rgK-35" value="" style="endArrow=none;dashed=1;html=1;rounded=0;" parent="1" edge="1">
          <mxGeometry width="50" height="50" relative="1" as="geometry">
            <mxPoint x="40" y="200" as="sourcePoint" />
            <mxPoint x="720" y="200" as="targetPoint" />
          </mxGeometry>
        </mxCell>
        <mxCell id="USsaQdyHqkql7huK7rgK-36" value="" style="endArrow=none;dashed=1;html=1;rounded=0;" parent="1" edge="1">
          <mxGeometry width="50" height="50" relative="1" as="geometry">
            <mxPoint x="40" y="320" as="sourcePoint" />
            <mxPoint x="720" y="320" as="targetPoint" />
          </mxGeometry>
        </mxCell>
        <mxCell id="USsaQdyHqkql7huK7rgK-37" value="" style="endArrow=none;dashed=1;html=1;rounded=0;" parent="1" edge="1">
          <mxGeometry width="50" height="50" relative="1" as="geometry">
            <mxPoint x="40" y="600" as="sourcePoint" />
            <mxPoint x="720" y="600" as="targetPoint" />
          </mxGeometry>
        </mxCell>
        <mxCell id="USsaQdyHqkql7huK7rgK-38" value="" style="endArrow=none;dashed=1;html=1;rounded=0;" parent="1" edge="1">
          <mxGeometry width="50" height="50" relative="1" as="geometry">
            <mxPoint x="40" y="720" as="sourcePoint" />
            <mxPoint x="720" y="720" as="targetPoint" />
          </mxGeometry>
        </mxCell>
        <mxCell id="v76DnYWsnmgs_K17_xJx-1" value="main" style="text;html=1;align=left;verticalAlign=middle;whiteSpace=wrap;rounded=0;fontFamily=Helvetica;fontSize=14;" vertex="1" parent="1">
          <mxGeometry x="800" y="125" width="80" height="30" as="geometry" />
        </mxCell>
        <mxCell id="v76DnYWsnmgs_K17_xJx-2" value="feature/fibo" style="text;html=1;align=left;verticalAlign=middle;whiteSpace=wrap;rounded=0;fontFamily=Helvetica;fontSize=14;" vertex="1" parent="1">
          <mxGeometry x="800" y="245" width="80" height="30" as="geometry" />
        </mxCell>
        <mxCell id="v76DnYWsnmgs_K17_xJx-3" value="feature/cli" style="text;html=1;align=left;verticalAlign=middle;whiteSpace=wrap;rounded=0;fontFamily=Helvetica;fontSize=14;" vertex="1" parent="1">
          <mxGeometry x="800" y="365" width="80" height="30" as="geometry" />
        </mxCell>
        <mxCell id="v76DnYWsnmgs_K17_xJx-4" value="" style="ellipse;whiteSpace=wrap;html=1;" vertex="1" parent="1">
          <mxGeometry x="880" y="110" width="50" height="50" as="geometry" />
        </mxCell>
        <mxCell id="v76DnYWsnmgs_K17_xJx-5" style="edgeStyle=orthogonalEdgeStyle;rounded=0;orthogonalLoop=1;jettySize=auto;html=1;exitX=0;exitY=0.5;exitDx=0;exitDy=0;entryX=1;entryY=0.5;entryDx=0;entryDy=0;" edge="1" parent="1" source="v76DnYWsnmgs_K17_xJx-6" target="v76DnYWsnmgs_K17_xJx-4">
          <mxGeometry relative="1" as="geometry" />
        </mxCell>
        <mxCell id="v76DnYWsnmgs_K17_xJx-6" value="" style="ellipse;whiteSpace=wrap;html=1;" vertex="1" parent="1">
          <mxGeometry x="1000" y="110" width="50" height="50" as="geometry" />
        </mxCell>
        <mxCell id="v76DnYWsnmgs_K17_xJx-7" style="rounded=0;orthogonalLoop=1;jettySize=auto;html=1;entryX=1;entryY=1;entryDx=0;entryDy=0;exitX=0;exitY=0.5;exitDx=0;exitDy=0;" edge="1" parent="1" source="v76DnYWsnmgs_K17_xJx-8" target="v76DnYWsnmgs_K17_xJx-6">
          <mxGeometry relative="1" as="geometry" />
        </mxCell>
        <mxCell id="v76DnYWsnmgs_K17_xJx-8" value="" style="ellipse;whiteSpace=wrap;html=1;" vertex="1" parent="1">
          <mxGeometry x="1080" y="230" width="50" height="50" as="geometry" />
        </mxCell>
        <mxCell id="v76DnYWsnmgs_K17_xJx-9" style="edgeStyle=orthogonalEdgeStyle;rounded=0;orthogonalLoop=1;jettySize=auto;html=1;entryX=1;entryY=0.5;entryDx=0;entryDy=0;" edge="1" parent="1" source="v76DnYWsnmgs_K17_xJx-10" target="v76DnYWsnmgs_K17_xJx-8">
          <mxGeometry relative="1" as="geometry" />
        </mxCell>
        <mxCell id="v76DnYWsnmgs_K17_xJx-10" value="" style="ellipse;whiteSpace=wrap;html=1;" vertex="1" parent="1">
          <mxGeometry x="1200" y="230" width="50" height="50" as="geometry" />
        </mxCell>
        <mxCell id="v76DnYWsnmgs_K17_xJx-11" value="最初のコミット" style="text;html=1;align=center;verticalAlign=middle;rounded=0;" vertex="1" parent="1">
          <mxGeometry x="865" y="88" width="80" height="30" as="geometry" />
        </mxCell>
        <mxCell id="v76DnYWsnmgs_K17_xJx-12" value="&lt;span style=&quot;font-size: 14px;&quot;&gt;.gitignore&lt;/span&gt;" style="text;html=1;align=center;verticalAlign=middle;rounded=0;fontSize=14;" vertex="1" parent="1">
          <mxGeometry x="985" y="83" width="80" height="30" as="geometry" />
        </mxCell>
        <mxCell id="v76DnYWsnmgs_K17_xJx-13" value="fibonacci" style="text;html=1;align=center;verticalAlign=middle;rounded=0;fontSize=14;" vertex="1" parent="1">
          <mxGeometry x="1070" y="209" width="80" height="30" as="geometry" />
        </mxCell>
        <mxCell id="v76DnYWsnmgs_K17_xJx-14" value="単体テスト" style="text;html=1;align=center;verticalAlign=middle;rounded=0;" vertex="1" parent="1">
          <mxGeometry x="1185" y="209" width="80" height="30" as="geometry" />
        </mxCell>
        <mxCell id="v76DnYWsnmgs_K17_xJx-15" style="rounded=0;orthogonalLoop=1;jettySize=auto;html=1;exitX=0;exitY=0.5;exitDx=0;exitDy=0;entryX=0.5;entryY=1;entryDx=0;entryDy=0;" edge="1" parent="1" source="v76DnYWsnmgs_K17_xJx-16" target="v76DnYWsnmgs_K17_xJx-6">
          <mxGeometry relative="1" as="geometry" />
        </mxCell>
        <mxCell id="v76DnYWsnmgs_K17_xJx-16" value="" style="ellipse;whiteSpace=wrap;html=1;" vertex="1" parent="1">
          <mxGeometry x="1080" y="350" width="50" height="50" as="geometry" />
        </mxCell>
        <mxCell id="v76DnYWsnmgs_K17_xJx-17" value="コマンドラインパーサー" style="text;html=1;align=center;verticalAlign=middle;rounded=0;" vertex="1" parent="1">
          <mxGeometry x="1070" y="330" width="80" height="30" as="geometry" />
        </mxCell>
        <mxCell id="v76DnYWsnmgs_K17_xJx-18" value="" style="endArrow=none;dashed=1;html=1;rounded=0;" edge="1" parent="1">
          <mxGeometry width="50" height="50" relative="1" as="geometry">
            <mxPoint x="800" y="200" as="sourcePoint" />
            <mxPoint x="1480" y="200" as="targetPoint" />
          </mxGeometry>
        </mxCell>
        <mxCell id="v76DnYWsnmgs_K17_xJx-19" value="" style="endArrow=none;dashed=1;html=1;rounded=0;" edge="1" parent="1">
          <mxGeometry width="50" height="50" relative="1" as="geometry">
            <mxPoint x="800" y="320" as="sourcePoint" />
            <mxPoint x="1480" y="320" as="targetPoint" />
          </mxGeometry>
        </mxCell>
        <mxCell id="v76DnYWsnmgs_K17_xJx-20" style="edgeStyle=orthogonalEdgeStyle;rounded=0;orthogonalLoop=1;jettySize=auto;html=1;entryX=1;entryY=0.5;entryDx=0;entryDy=0;" edge="1" parent="1" source="v76DnYWsnmgs_K17_xJx-22" target="v76DnYWsnmgs_K17_xJx-16">
          <mxGeometry relative="1" as="geometry" />
        </mxCell>
        <mxCell id="v76DnYWsnmgs_K17_xJx-21" style="rounded=0;orthogonalLoop=1;jettySize=auto;html=1;entryX=1;entryY=1;entryDx=0;entryDy=0;" edge="1" parent="1" source="v76DnYWsnmgs_K17_xJx-22" target="v76DnYWsnmgs_K17_xJx-10">
          <mxGeometry relative="1" as="geometry" />
        </mxCell>
        <mxCell id="v76DnYWsnmgs_K17_xJx-22" value="" style="ellipse;whiteSpace=wrap;html=1;" vertex="1" parent="1">
          <mxGeometry x="1321" y="350" width="50" height="50" as="geometry" />
        </mxCell>
        <mxCell id="v76DnYWsnmgs_K17_xJx-23" value="マージコミット" style="text;html=1;align=center;verticalAlign=middle;rounded=0;" vertex="1" parent="1">
          <mxGeometry x="1306" y="330" width="80" height="30" as="geometry" />
        </mxCell>
        <mxCell id="v76DnYWsnmgs_K17_xJx-24" value="最初のコミット" style="text;html=1;align=center;verticalAlign=middle;rounded=0;" vertex="1" parent="1">
          <mxGeometry x="105" y="912" width="80" height="30" as="geometry" />
        </mxCell>
        <mxCell id="v76DnYWsnmgs_K17_xJx-25" value="" style="ellipse;whiteSpace=wrap;html=1;" vertex="1" parent="1">
          <mxGeometry x="120" y="934" width="50" height="50" as="geometry" />
        </mxCell>
        <mxCell id="v76DnYWsnmgs_K17_xJx-26" value="&lt;span style=&quot;font-size: 14px;&quot;&gt;.gitignore&lt;/span&gt;" style="text;html=1;align=center;verticalAlign=middle;rounded=0;fontSize=14;" vertex="1" parent="1">
          <mxGeometry x="225" y="905" width="80" height="40" as="geometry" />
        </mxCell>
        <mxCell id="v76DnYWsnmgs_K17_xJx-27" value="" style="ellipse;whiteSpace=wrap;html=1;" vertex="1" parent="1">
          <mxGeometry x="240" y="934" width="50" height="50" as="geometry" />
        </mxCell>
        <mxCell id="v76DnYWsnmgs_K17_xJx-28" value="" style="ellipse;whiteSpace=wrap;html=1;" vertex="1" parent="1">
          <mxGeometry x="360" y="934" width="50" height="50" as="geometry" />
        </mxCell>
        <mxCell id="v76DnYWsnmgs_K17_xJx-29" value="" style="ellipse;whiteSpace=wrap;html=1;" vertex="1" parent="1">
          <mxGeometry x="480" y="934" width="50" height="50" as="geometry" />
        </mxCell>
        <mxCell id="v76DnYWsnmgs_K17_xJx-30" value="fibonacci" style="text;html=1;align=center;verticalAlign=middle;rounded=0;fontSize=14;" vertex="1" parent="1">
          <mxGeometry x="350" y="913" width="80" height="30" as="geometry" />
        </mxCell>
        <mxCell id="v76DnYWsnmgs_K17_xJx-31" value="単体テスト" style="text;html=1;align=center;verticalAlign=middle;rounded=0;" vertex="1" parent="1">
          <mxGeometry x="465" y="913" width="80" height="30" as="geometry" />
        </mxCell>
        <mxCell id="v76DnYWsnmgs_K17_xJx-32" value="コマンドラインパーサー" style="text;html=1;align=center;verticalAlign=middle;rounded=0;" vertex="1" parent="1">
          <mxGeometry x="350" y="992" width="80" height="30" as="geometry" />
        </mxCell>
        <mxCell id="v76DnYWsnmgs_K17_xJx-33" value="" style="ellipse;whiteSpace=wrap;html=1;" vertex="1" parent="1">
          <mxGeometry x="360" y="1015" width="50" height="50" as="geometry" />
        </mxCell>
        <mxCell id="v76DnYWsnmgs_K17_xJx-34" style="edgeStyle=orthogonalEdgeStyle;rounded=0;orthogonalLoop=1;jettySize=auto;html=1;exitX=0;exitY=0.5;exitDx=0;exitDy=0;" edge="1" parent="1" source="v76DnYWsnmgs_K17_xJx-27" target="v76DnYWsnmgs_K17_xJx-25">
          <mxGeometry relative="1" as="geometry">
            <mxPoint x="250" y="561" as="sourcePoint" />
            <mxPoint x="180" y="561" as="targetPoint" />
          </mxGeometry>
        </mxCell>
        <mxCell id="v76DnYWsnmgs_K17_xJx-35" style="edgeStyle=orthogonalEdgeStyle;rounded=0;orthogonalLoop=1;jettySize=auto;html=1;exitX=0;exitY=0.5;exitDx=0;exitDy=0;entryX=1;entryY=0.5;entryDx=0;entryDy=0;" edge="1" parent="1" source="v76DnYWsnmgs_K17_xJx-28" target="v76DnYWsnmgs_K17_xJx-27">
          <mxGeometry relative="1" as="geometry">
            <mxPoint x="250" y="969" as="sourcePoint" />
            <mxPoint x="290" y="959" as="targetPoint" />
          </mxGeometry>
        </mxCell>
        <mxCell id="v76DnYWsnmgs_K17_xJx-36" style="edgeStyle=orthogonalEdgeStyle;rounded=0;orthogonalLoop=1;jettySize=auto;html=1;exitX=0;exitY=0.5;exitDx=0;exitDy=0;entryX=1;entryY=0.5;entryDx=0;entryDy=0;" edge="1" parent="1" source="v76DnYWsnmgs_K17_xJx-29" target="v76DnYWsnmgs_K17_xJx-28">
          <mxGeometry relative="1" as="geometry">
            <mxPoint x="460" y="965" as="sourcePoint" />
            <mxPoint x="190" y="979" as="targetPoint" />
          </mxGeometry>
        </mxCell>
        <mxCell id="v76DnYWsnmgs_K17_xJx-37" style="rounded=0;orthogonalLoop=1;jettySize=auto;html=1;entryX=1;entryY=1;entryDx=0;entryDy=0;" edge="1" parent="1" source="v76DnYWsnmgs_K17_xJx-33" target="v76DnYWsnmgs_K17_xJx-27">
          <mxGeometry relative="1" as="geometry">
            <mxPoint x="490" y="969" as="sourcePoint" />
            <mxPoint x="420" y="969" as="targetPoint" />
          </mxGeometry>
        </mxCell>
        <mxCell id="v76DnYWsnmgs_K17_xJx-38" value="main" style="text;html=1;align=center;verticalAlign=middle;whiteSpace=wrap;rounded=0;fillColor=#f8cecc;strokeColor=#b85450;" vertex="1" parent="1">
          <mxGeometry x="240" y="855" width="50" height="30" as="geometry" />
        </mxCell>
        <mxCell id="v76DnYWsnmgs_K17_xJx-39" style="edgeStyle=orthogonalEdgeStyle;rounded=0;orthogonalLoop=1;jettySize=auto;html=1;exitX=0.5;exitY=1;exitDx=0;exitDy=0;entryX=0.5;entryY=0;entryDx=0;entryDy=0;dashed=1;" edge="1" parent="1" source="v76DnYWsnmgs_K17_xJx-38" target="v76DnYWsnmgs_K17_xJx-27">
          <mxGeometry relative="1" as="geometry">
            <mxPoint x="370" y="969" as="sourcePoint" />
            <mxPoint x="300" y="969" as="targetPoint" />
          </mxGeometry>
        </mxCell>
        <mxCell id="v76DnYWsnmgs_K17_xJx-41" style="edgeStyle=orthogonalEdgeStyle;rounded=0;orthogonalLoop=1;jettySize=auto;html=1;exitX=0.5;exitY=1;exitDx=0;exitDy=0;entryX=0.5;entryY=0;entryDx=0;entryDy=0;dashed=1;" edge="1" source="v76DnYWsnmgs_K17_xJx-42" parent="1">
          <mxGeometry relative="1" as="geometry">
            <mxPoint x="610" y="969" as="sourcePoint" />
            <mxPoint x="505" y="934" as="targetPoint" />
          </mxGeometry>
        </mxCell>
        <mxCell id="v76DnYWsnmgs_K17_xJx-42" value="feature&lt;div&gt;/fibo&lt;/div&gt;" style="text;html=1;align=center;verticalAlign=middle;whiteSpace=wrap;rounded=0;fillColor=#f8cecc;strokeColor=#b85450;" vertex="1" parent="1">
          <mxGeometry x="480" y="855" width="50" height="30" as="geometry" />
        </mxCell>
        <mxCell id="v76DnYWsnmgs_K17_xJx-43" style="edgeStyle=orthogonalEdgeStyle;rounded=0;orthogonalLoop=1;jettySize=auto;html=1;exitX=0.5;exitY=0;exitDx=0;exitDy=0;entryX=0.5;entryY=1;entryDx=0;entryDy=0;dashed=1;" edge="1" parent="1" source="v76DnYWsnmgs_K17_xJx-44" target="v76DnYWsnmgs_K17_xJx-33">
          <mxGeometry relative="1" as="geometry">
            <mxPoint x="490" y="1209" as="sourcePoint" />
            <mxPoint x="385" y="1174" as="targetPoint" />
          </mxGeometry>
        </mxCell>
        <mxCell id="v76DnYWsnmgs_K17_xJx-44" value="feature&lt;div&gt;/cli&lt;/div&gt;" style="text;html=1;align=center;verticalAlign=middle;whiteSpace=wrap;rounded=0;fillColor=#f8cecc;strokeColor=#b85450;" vertex="1" parent="1">
          <mxGeometry x="360" y="1095" width="50" height="30" as="geometry" />
        </mxCell>
        <mxCell id="v76DnYWsnmgs_K17_xJx-45" value="最初のコミット" style="text;html=1;align=center;verticalAlign=middle;rounded=0;" vertex="1" parent="1">
          <mxGeometry x="626" y="912" width="80" height="30" as="geometry" />
        </mxCell>
        <mxCell id="v76DnYWsnmgs_K17_xJx-46" value="" style="ellipse;whiteSpace=wrap;html=1;" vertex="1" parent="1">
          <mxGeometry x="641" y="934" width="50" height="50" as="geometry" />
        </mxCell>
        <mxCell id="v76DnYWsnmgs_K17_xJx-47" value="&lt;span style=&quot;font-size: 14px;&quot;&gt;.gitignore&lt;/span&gt;" style="text;html=1;align=center;verticalAlign=middle;rounded=0;fontSize=14;" vertex="1" parent="1">
          <mxGeometry x="746" y="905" width="80" height="40" as="geometry" />
        </mxCell>
        <mxCell id="v76DnYWsnmgs_K17_xJx-48" value="" style="ellipse;whiteSpace=wrap;html=1;" vertex="1" parent="1">
          <mxGeometry x="761" y="934" width="50" height="50" as="geometry" />
        </mxCell>
        <mxCell id="v76DnYWsnmgs_K17_xJx-49" value="" style="ellipse;whiteSpace=wrap;html=1;strokeColor=#999999;" vertex="1" parent="1">
          <mxGeometry x="880" y="934" width="50" height="50" as="geometry" />
        </mxCell>
        <mxCell id="v76DnYWsnmgs_K17_xJx-50" value="" style="ellipse;whiteSpace=wrap;html=1;strokeColor=#999999;" vertex="1" parent="1">
          <mxGeometry x="1000" y="934" width="50" height="50" as="geometry" />
        </mxCell>
        <mxCell id="v76DnYWsnmgs_K17_xJx-51" value="fibonacci" style="text;html=1;align=center;verticalAlign=middle;rounded=0;fontSize=14;fontColor=#999999;" vertex="1" parent="1">
          <mxGeometry x="870" y="913" width="80" height="30" as="geometry" />
        </mxCell>
        <mxCell id="v76DnYWsnmgs_K17_xJx-52" value="単体テスト" style="text;html=1;align=center;verticalAlign=middle;rounded=0;fontColor=#999999;" vertex="1" parent="1">
          <mxGeometry x="985" y="913" width="80" height="30" as="geometry" />
        </mxCell>
        <mxCell id="v76DnYWsnmgs_K17_xJx-53" value="コマンドラインパーサー" style="text;html=1;align=center;verticalAlign=middle;rounded=0;" vertex="1" parent="1">
          <mxGeometry x="871" y="992" width="80" height="30" as="geometry" />
        </mxCell>
        <mxCell id="v76DnYWsnmgs_K17_xJx-54" value="" style="ellipse;whiteSpace=wrap;html=1;" vertex="1" parent="1">
          <mxGeometry x="881" y="1015" width="50" height="50" as="geometry" />
        </mxCell>
        <mxCell id="v76DnYWsnmgs_K17_xJx-55" style="edgeStyle=orthogonalEdgeStyle;rounded=0;orthogonalLoop=1;jettySize=auto;html=1;exitX=0;exitY=0.5;exitDx=0;exitDy=0;" edge="1" parent="1" source="v76DnYWsnmgs_K17_xJx-48" target="v76DnYWsnmgs_K17_xJx-46">
          <mxGeometry relative="1" as="geometry">
            <mxPoint x="771" y="561" as="sourcePoint" />
            <mxPoint x="701" y="561" as="targetPoint" />
          </mxGeometry>
        </mxCell>
        <mxCell id="v76DnYWsnmgs_K17_xJx-56" style="edgeStyle=orthogonalEdgeStyle;rounded=0;orthogonalLoop=1;jettySize=auto;html=1;exitX=0;exitY=0.5;exitDx=0;exitDy=0;entryX=1;entryY=0.5;entryDx=0;entryDy=0;strokeColor=#999999;" edge="1" parent="1" source="v76DnYWsnmgs_K17_xJx-49" target="v76DnYWsnmgs_K17_xJx-48">
          <mxGeometry relative="1" as="geometry">
            <mxPoint x="771" y="969" as="sourcePoint" />
            <mxPoint x="811" y="959" as="targetPoint" />
          </mxGeometry>
        </mxCell>
        <mxCell id="v76DnYWsnmgs_K17_xJx-57" style="edgeStyle=orthogonalEdgeStyle;rounded=0;orthogonalLoop=1;jettySize=auto;html=1;exitX=0;exitY=0.5;exitDx=0;exitDy=0;entryX=1;entryY=0.5;entryDx=0;entryDy=0;strokeColor=#999999;" edge="1" parent="1" source="v76DnYWsnmgs_K17_xJx-50" target="v76DnYWsnmgs_K17_xJx-49">
          <mxGeometry relative="1" as="geometry">
            <mxPoint x="980" y="965" as="sourcePoint" />
            <mxPoint x="710" y="979" as="targetPoint" />
          </mxGeometry>
        </mxCell>
        <mxCell id="v76DnYWsnmgs_K17_xJx-58" style="rounded=0;orthogonalLoop=1;jettySize=auto;html=1;entryX=1;entryY=1;entryDx=0;entryDy=0;" edge="1" parent="1" source="v76DnYWsnmgs_K17_xJx-54" target="v76DnYWsnmgs_K17_xJx-48">
          <mxGeometry relative="1" as="geometry">
            <mxPoint x="1011" y="969" as="sourcePoint" />
            <mxPoint x="941" y="969" as="targetPoint" />
          </mxGeometry>
        </mxCell>
        <mxCell id="v76DnYWsnmgs_K17_xJx-59" value="main" style="text;html=1;align=center;verticalAlign=middle;whiteSpace=wrap;rounded=0;fillColor=#f8cecc;strokeColor=#b85450;" vertex="1" parent="1">
          <mxGeometry x="761" y="855" width="50" height="30" as="geometry" />
        </mxCell>
        <mxCell id="v76DnYWsnmgs_K17_xJx-60" style="edgeStyle=orthogonalEdgeStyle;rounded=0;orthogonalLoop=1;jettySize=auto;html=1;exitX=0.5;exitY=1;exitDx=0;exitDy=0;entryX=0.5;entryY=0;entryDx=0;entryDy=0;dashed=1;" edge="1" parent="1" source="v76DnYWsnmgs_K17_xJx-59" target="v76DnYWsnmgs_K17_xJx-48">
          <mxGeometry relative="1" as="geometry">
            <mxPoint x="891" y="969" as="sourcePoint" />
            <mxPoint x="821" y="969" as="targetPoint" />
          </mxGeometry>
        </mxCell>
        <mxCell id="v76DnYWsnmgs_K17_xJx-61" style="edgeStyle=orthogonalEdgeStyle;rounded=0;orthogonalLoop=1;jettySize=auto;html=1;exitX=0.5;exitY=1;exitDx=0;exitDy=0;entryX=0.5;entryY=0;entryDx=0;entryDy=0;dashed=1;strokeColor=#999999;" edge="1" parent="1" source="v76DnYWsnmgs_K17_xJx-62">
          <mxGeometry relative="1" as="geometry">
            <mxPoint x="1130" y="969" as="sourcePoint" />
            <mxPoint x="1025" y="934" as="targetPoint" />
          </mxGeometry>
        </mxCell>
        <mxCell id="v76DnYWsnmgs_K17_xJx-62" value="feature&lt;div&gt;/fibo&lt;/div&gt;" style="text;html=1;align=center;verticalAlign=middle;whiteSpace=wrap;rounded=0;fillColor=none;strokeColor=#999999;fontColor=#999999;" vertex="1" parent="1">
          <mxGeometry x="1000" y="855" width="50" height="30" as="geometry" />
        </mxCell>
        <mxCell id="v76DnYWsnmgs_K17_xJx-63" style="edgeStyle=orthogonalEdgeStyle;rounded=0;orthogonalLoop=1;jettySize=auto;html=1;exitX=0.5;exitY=0;exitDx=0;exitDy=0;entryX=0.5;entryY=1;entryDx=0;entryDy=0;dashed=1;" edge="1" parent="1" source="v76DnYWsnmgs_K17_xJx-64" target="v76DnYWsnmgs_K17_xJx-54">
          <mxGeometry relative="1" as="geometry">
            <mxPoint x="1011" y="1209" as="sourcePoint" />
            <mxPoint x="906" y="1174" as="targetPoint" />
          </mxGeometry>
        </mxCell>
        <mxCell id="v76DnYWsnmgs_K17_xJx-64" value="feature&lt;div&gt;/cli&lt;/div&gt;" style="text;html=1;align=center;verticalAlign=middle;whiteSpace=wrap;rounded=0;fillColor=#f8cecc;strokeColor=#b85450;" vertex="1" parent="1">
          <mxGeometry x="881" y="1095" width="50" height="30" as="geometry" />
        </mxCell>
        <mxCell id="v76DnYWsnmgs_K17_xJx-65" value="" style="ellipse;whiteSpace=wrap;html=1;" vertex="1" parent="1">
          <mxGeometry x="1000" y="1013" width="50" height="50" as="geometry" />
        </mxCell>
        <mxCell id="v76DnYWsnmgs_K17_xJx-66" value="" style="ellipse;whiteSpace=wrap;html=1;" vertex="1" parent="1">
          <mxGeometry x="1120" y="1013" width="50" height="50" as="geometry" />
        </mxCell>
        <mxCell id="v76DnYWsnmgs_K17_xJx-67" value="fibonacci&#39;" style="text;html=1;align=center;verticalAlign=middle;rounded=0;fontSize=14;" vertex="1" parent="1">
          <mxGeometry x="990" y="992" width="80" height="30" as="geometry" />
        </mxCell>
        <mxCell id="v76DnYWsnmgs_K17_xJx-68" value="単体テスト&#39;" style="text;html=1;align=center;verticalAlign=middle;rounded=0;" vertex="1" parent="1">
          <mxGeometry x="1105" y="992" width="80" height="30" as="geometry" />
        </mxCell>
        <mxCell id="v76DnYWsnmgs_K17_xJx-69" style="edgeStyle=orthogonalEdgeStyle;rounded=0;orthogonalLoop=1;jettySize=auto;html=1;exitX=0;exitY=0.5;exitDx=0;exitDy=0;entryX=1;entryY=0.5;entryDx=0;entryDy=0;" edge="1" source="v76DnYWsnmgs_K17_xJx-66" target="v76DnYWsnmgs_K17_xJx-65" parent="1">
          <mxGeometry relative="1" as="geometry">
            <mxPoint x="1100" y="1044" as="sourcePoint" />
            <mxPoint x="830" y="1058" as="targetPoint" />
          </mxGeometry>
        </mxCell>
        <mxCell id="v76DnYWsnmgs_K17_xJx-70" style="edgeStyle=orthogonalEdgeStyle;rounded=0;orthogonalLoop=1;jettySize=auto;html=1;exitX=0.5;exitY=1;exitDx=0;exitDy=0;entryX=0.5;entryY=0;entryDx=0;entryDy=0;dashed=1;" edge="1" source="v76DnYWsnmgs_K17_xJx-71" parent="1">
          <mxGeometry relative="1" as="geometry">
            <mxPoint x="1250" y="1048" as="sourcePoint" />
            <mxPoint x="1145" y="1013" as="targetPoint" />
          </mxGeometry>
        </mxCell>
        <mxCell id="v76DnYWsnmgs_K17_xJx-71" value="feature&lt;div&gt;/fibo&lt;/div&gt;" style="text;html=1;align=center;verticalAlign=middle;whiteSpace=wrap;rounded=0;fillColor=#f8cecc;strokeColor=#b85450;" vertex="1" parent="1">
          <mxGeometry x="1120" y="934" width="50" height="30" as="geometry" />
        </mxCell>
        <mxCell id="v76DnYWsnmgs_K17_xJx-72" style="edgeStyle=orthogonalEdgeStyle;rounded=0;orthogonalLoop=1;jettySize=auto;html=1;exitX=0;exitY=0.5;exitDx=0;exitDy=0;" edge="1" source="v76DnYWsnmgs_K17_xJx-65" parent="1">
          <mxGeometry relative="1" as="geometry">
            <mxPoint x="891" y="1048" as="sourcePoint" />
            <mxPoint x="931" y="1038" as="targetPoint" />
          </mxGeometry>
        </mxCell>
        <mxCell id="v76DnYWsnmgs_K17_xJx-73" value=".gitignoreとの差分" style="text;html=1;align=center;verticalAlign=middle;rounded=0;" vertex="1" parent="1">
          <mxGeometry x="990" y="1065" width="80" height="30" as="geometry" />
        </mxCell>
        <mxCell id="v76DnYWsnmgs_K17_xJx-74" value="fibonacci&#39;との差分" style="text;html=1;align=center;verticalAlign=middle;rounded=0;" vertex="1" parent="1">
          <mxGeometry x="1110" y="1065" width="80" height="30" as="geometry" />
        </mxCell>
        <mxCell id="v76DnYWsnmgs_K17_xJx-75" value="最初のコミット" style="text;html=1;align=center;verticalAlign=middle;rounded=0;" vertex="1" parent="1">
          <mxGeometry x="1265" y="912" width="80" height="30" as="geometry" />
        </mxCell>
        <mxCell id="v76DnYWsnmgs_K17_xJx-76" value="" style="ellipse;whiteSpace=wrap;html=1;" vertex="1" parent="1">
          <mxGeometry x="1280" y="934" width="50" height="50" as="geometry" />
        </mxCell>
        <mxCell id="v76DnYWsnmgs_K17_xJx-77" value="&lt;span style=&quot;font-size: 14px;&quot;&gt;.gitignore&lt;/span&gt;" style="text;html=1;align=center;verticalAlign=middle;rounded=0;fontSize=14;" vertex="1" parent="1">
          <mxGeometry x="1385" y="905" width="80" height="40" as="geometry" />
        </mxCell>
        <mxCell id="v76DnYWsnmgs_K17_xJx-78" value="" style="ellipse;whiteSpace=wrap;html=1;" vertex="1" parent="1">
          <mxGeometry x="1400" y="934" width="50" height="50" as="geometry" />
        </mxCell>
        <mxCell id="v76DnYWsnmgs_K17_xJx-79" value="" style="ellipse;whiteSpace=wrap;html=1;strokeColor=#999999;" vertex="1" parent="1">
          <mxGeometry x="1519" y="934" width="50" height="50" as="geometry" />
        </mxCell>
        <mxCell id="v76DnYWsnmgs_K17_xJx-80" value="" style="ellipse;whiteSpace=wrap;html=1;strokeColor=#999999;" vertex="1" parent="1">
          <mxGeometry x="1639" y="934" width="50" height="50" as="geometry" />
        </mxCell>
        <mxCell id="v76DnYWsnmgs_K17_xJx-81" value="fibonacci" style="text;html=1;align=center;verticalAlign=middle;rounded=0;fontSize=14;fontColor=#999999;" vertex="1" parent="1">
          <mxGeometry x="1509" y="913" width="80" height="30" as="geometry" />
        </mxCell>
        <mxCell id="v76DnYWsnmgs_K17_xJx-82" value="単体テスト" style="text;html=1;align=center;verticalAlign=middle;rounded=0;fontColor=#999999;" vertex="1" parent="1">
          <mxGeometry x="1624" y="913" width="80" height="30" as="geometry" />
        </mxCell>
        <mxCell id="v76DnYWsnmgs_K17_xJx-83" value="コマンドラインパーサー" style="text;html=1;align=center;verticalAlign=middle;rounded=0;" vertex="1" parent="1">
          <mxGeometry x="1510" y="992" width="80" height="30" as="geometry" />
        </mxCell>
        <mxCell id="v76DnYWsnmgs_K17_xJx-84" value="" style="ellipse;whiteSpace=wrap;html=1;" vertex="1" parent="1">
          <mxGeometry x="1520" y="1015" width="50" height="50" as="geometry" />
        </mxCell>
        <mxCell id="v76DnYWsnmgs_K17_xJx-85" style="edgeStyle=orthogonalEdgeStyle;rounded=0;orthogonalLoop=1;jettySize=auto;html=1;exitX=0;exitY=0.5;exitDx=0;exitDy=0;" edge="1" source="v76DnYWsnmgs_K17_xJx-78" target="v76DnYWsnmgs_K17_xJx-76" parent="1">
          <mxGeometry relative="1" as="geometry">
            <mxPoint x="1410" y="561" as="sourcePoint" />
            <mxPoint x="1340" y="561" as="targetPoint" />
          </mxGeometry>
        </mxCell>
        <mxCell id="v76DnYWsnmgs_K17_xJx-86" style="edgeStyle=orthogonalEdgeStyle;rounded=0;orthogonalLoop=1;jettySize=auto;html=1;exitX=0;exitY=0.5;exitDx=0;exitDy=0;entryX=1;entryY=0.5;entryDx=0;entryDy=0;strokeColor=#999999;" edge="1" source="v76DnYWsnmgs_K17_xJx-79" target="v76DnYWsnmgs_K17_xJx-78" parent="1">
          <mxGeometry relative="1" as="geometry">
            <mxPoint x="1410" y="969" as="sourcePoint" />
            <mxPoint x="1450" y="959" as="targetPoint" />
          </mxGeometry>
        </mxCell>
        <mxCell id="v76DnYWsnmgs_K17_xJx-87" style="edgeStyle=orthogonalEdgeStyle;rounded=0;orthogonalLoop=1;jettySize=auto;html=1;exitX=0;exitY=0.5;exitDx=0;exitDy=0;entryX=1;entryY=0.5;entryDx=0;entryDy=0;strokeColor=#999999;" edge="1" source="v76DnYWsnmgs_K17_xJx-80" target="v76DnYWsnmgs_K17_xJx-79" parent="1">
          <mxGeometry relative="1" as="geometry">
            <mxPoint x="1619" y="965" as="sourcePoint" />
            <mxPoint x="1349" y="979" as="targetPoint" />
          </mxGeometry>
        </mxCell>
        <mxCell id="v76DnYWsnmgs_K17_xJx-88" style="rounded=0;orthogonalLoop=1;jettySize=auto;html=1;entryX=1;entryY=1;entryDx=0;entryDy=0;" edge="1" source="v76DnYWsnmgs_K17_xJx-84" target="v76DnYWsnmgs_K17_xJx-78" parent="1">
          <mxGeometry relative="1" as="geometry">
            <mxPoint x="1650" y="969" as="sourcePoint" />
            <mxPoint x="1580" y="969" as="targetPoint" />
          </mxGeometry>
        </mxCell>
        <mxCell id="v76DnYWsnmgs_K17_xJx-89" value="main" style="text;html=1;align=center;verticalAlign=middle;whiteSpace=wrap;rounded=0;fillColor=#f8cecc;strokeColor=#b85450;" vertex="1" parent="1">
          <mxGeometry x="1400" y="855" width="50" height="30" as="geometry" />
        </mxCell>
        <mxCell id="v76DnYWsnmgs_K17_xJx-90" style="edgeStyle=orthogonalEdgeStyle;rounded=0;orthogonalLoop=1;jettySize=auto;html=1;exitX=0.5;exitY=1;exitDx=0;exitDy=0;entryX=0.5;entryY=0;entryDx=0;entryDy=0;dashed=1;" edge="1" source="v76DnYWsnmgs_K17_xJx-89" target="v76DnYWsnmgs_K17_xJx-78" parent="1">
          <mxGeometry relative="1" as="geometry">
            <mxPoint x="1530" y="969" as="sourcePoint" />
            <mxPoint x="1460" y="969" as="targetPoint" />
          </mxGeometry>
        </mxCell>
        <mxCell id="v76DnYWsnmgs_K17_xJx-91" style="edgeStyle=orthogonalEdgeStyle;rounded=0;orthogonalLoop=1;jettySize=auto;html=1;exitX=0.5;exitY=1;exitDx=0;exitDy=0;entryX=0.5;entryY=0;entryDx=0;entryDy=0;dashed=1;strokeColor=#999999;" edge="1" source="v76DnYWsnmgs_K17_xJx-92" parent="1">
          <mxGeometry relative="1" as="geometry">
            <mxPoint x="1769" y="969" as="sourcePoint" />
            <mxPoint x="1664" y="934" as="targetPoint" />
          </mxGeometry>
        </mxCell>
        <mxCell id="v76DnYWsnmgs_K17_xJx-92" value="feature&lt;div&gt;/fibo&lt;/div&gt;" style="text;html=1;align=center;verticalAlign=middle;whiteSpace=wrap;rounded=0;fillColor=none;strokeColor=#999999;fontColor=#999999;" vertex="1" parent="1">
          <mxGeometry x="1639" y="855" width="50" height="30" as="geometry" />
        </mxCell>
        <mxCell id="v76DnYWsnmgs_K17_xJx-95" value="" style="ellipse;whiteSpace=wrap;html=1;" vertex="1" parent="1">
          <mxGeometry x="1639" y="1013" width="50" height="50" as="geometry" />
        </mxCell>
        <mxCell id="v76DnYWsnmgs_K17_xJx-96" value="" style="ellipse;whiteSpace=wrap;html=1;" vertex="1" parent="1">
          <mxGeometry x="1759" y="1013" width="50" height="50" as="geometry" />
        </mxCell>
        <mxCell id="v76DnYWsnmgs_K17_xJx-97" value="fibonacci&#39;" style="text;html=1;align=center;verticalAlign=middle;rounded=0;fontSize=14;" vertex="1" parent="1">
          <mxGeometry x="1629" y="992" width="80" height="30" as="geometry" />
        </mxCell>
        <mxCell id="v76DnYWsnmgs_K17_xJx-98" value="単体テスト&#39;" style="text;html=1;align=center;verticalAlign=middle;rounded=0;" vertex="1" parent="1">
          <mxGeometry x="1744" y="992" width="80" height="30" as="geometry" />
        </mxCell>
        <mxCell id="v76DnYWsnmgs_K17_xJx-99" style="edgeStyle=orthogonalEdgeStyle;rounded=0;orthogonalLoop=1;jettySize=auto;html=1;exitX=0;exitY=0.5;exitDx=0;exitDy=0;entryX=1;entryY=0.5;entryDx=0;entryDy=0;" edge="1" source="v76DnYWsnmgs_K17_xJx-96" target="v76DnYWsnmgs_K17_xJx-95" parent="1">
          <mxGeometry relative="1" as="geometry">
            <mxPoint x="1739" y="1044" as="sourcePoint" />
            <mxPoint x="1469" y="1058" as="targetPoint" />
          </mxGeometry>
        </mxCell>
        <mxCell id="v76DnYWsnmgs_K17_xJx-100" style="edgeStyle=orthogonalEdgeStyle;rounded=0;orthogonalLoop=1;jettySize=auto;html=1;exitX=0.5;exitY=1;exitDx=0;exitDy=0;entryX=0.5;entryY=0;entryDx=0;entryDy=0;dashed=1;" edge="1" source="v76DnYWsnmgs_K17_xJx-101" parent="1">
          <mxGeometry relative="1" as="geometry">
            <mxPoint x="1889" y="1048" as="sourcePoint" />
            <mxPoint x="1784" y="1013" as="targetPoint" />
          </mxGeometry>
        </mxCell>
        <mxCell id="v76DnYWsnmgs_K17_xJx-101" value="feature&lt;div&gt;/fibo&lt;/div&gt;" style="text;html=1;align=center;verticalAlign=middle;whiteSpace=wrap;rounded=0;fillColor=#f8cecc;strokeColor=#b85450;" vertex="1" parent="1">
          <mxGeometry x="1759" y="934" width="50" height="30" as="geometry" />
        </mxCell>
        <mxCell id="v76DnYWsnmgs_K17_xJx-102" style="edgeStyle=orthogonalEdgeStyle;rounded=0;orthogonalLoop=1;jettySize=auto;html=1;exitX=0;exitY=0.5;exitDx=0;exitDy=0;" edge="1" source="v76DnYWsnmgs_K17_xJx-95" parent="1">
          <mxGeometry relative="1" as="geometry">
            <mxPoint x="1530" y="1048" as="sourcePoint" />
            <mxPoint x="1570" y="1038" as="targetPoint" />
          </mxGeometry>
        </mxCell>
        <mxCell id="v76DnYWsnmgs_K17_xJx-105" style="edgeStyle=orthogonalEdgeStyle;rounded=0;orthogonalLoop=1;jettySize=auto;html=1;exitX=0.5;exitY=0;exitDx=0;exitDy=0;entryX=0.5;entryY=1;entryDx=0;entryDy=0;dashed=1;" edge="1" source="v76DnYWsnmgs_K17_xJx-106" parent="1" target="v76DnYWsnmgs_K17_xJx-96">
          <mxGeometry relative="1" as="geometry">
            <mxPoint x="1890" y="1209" as="sourcePoint" />
            <mxPoint x="1785" y="1065" as="targetPoint" />
          </mxGeometry>
        </mxCell>
        <mxCell id="v76DnYWsnmgs_K17_xJx-106" value="feature&lt;div&gt;/cli&lt;/div&gt;" style="text;html=1;align=center;verticalAlign=middle;whiteSpace=wrap;rounded=0;fillColor=#f8cecc;strokeColor=#b85450;" vertex="1" parent="1">
          <mxGeometry x="1760" y="1095" width="50" height="30" as="geometry" />
        </mxCell>
      </root>
    </mxGraphModel>
  </diagram>
</mxfile>
